<svg width="11" height="12" viewBox="0 0 11 12" fill="none" xmlns="http://www.w3.org/2000/svg">
<path d="M4.8359 12.0001C4.72193 11.9415 4.59818 11.9545 4.47769 11.9383C3.7743 11.8438 3.10347 11.6289 2.47823 11.3C1.47525 10.7692 0.677421 10.0137 0.0717221 9.05306C-0.0129455 8.91629 -0.0194584 8.79254 0.0521834 8.64926C0.511342 7.70814 1.2245 7.05034 2.19818 6.67259C2.45218 6.5749 2.71921 6.51628 2.9895 6.47069C3.15232 6.44464 3.2956 6.48698 3.42912 6.58141C3.78407 6.83542 4.17159 7.01778 4.60144 7.11221C5.54255 7.31737 6.41853 7.16757 7.21962 6.62375C7.41826 6.49023 7.61365 6.4479 7.84486 6.49349C9.14092 6.75075 10.069 7.48019 10.6617 8.65577C10.7236 8.77951 10.717 8.88372 10.6421 9.00421C10.0364 9.98114 9.23862 10.7497 8.22586 11.2902C7.54526 11.6517 6.82233 11.8764 6.05381 11.9611C5.96914 11.9708 5.87796 11.9611 5.79981 12.0067C5.47416 12.0001 5.15503 12.0001 4.8359 12.0001Z"/>
<path d="M5.63033 0C5.80618 0.052103 5.9918 0.0618724 6.1709 0.113975C7.04363 0.367978 7.70143 0.892265 8.11174 1.69986C8.58719 2.63772 8.59044 3.59511 8.11174 4.52971C7.63305 5.45779 6.86127 6.01464 5.82898 6.18724C4.53617 6.40216 3.26941 5.75087 2.63115 4.61763C2.00591 3.5137 2.15896 2.02551 3.00238 1.08114C3.52667 0.494979 4.1747 0.140027 4.95299 0.0260515C4.97579 0.0227951 5.00835 0.0358208 5.02464 0C5.22653 0 5.42843 0 5.63033 0Z"/>
</svg>
