<svg width="12" height="12" viewBox="0 0 12 12" fill="none" xmlns="http://www.w3.org/2000/svg">
<path d="M7.19631 12C8.54913 12 9.89882 12 11.2516 12C11.261 11.9937 11.2673 11.9812 11.2767 11.9812C11.5961 11.9311 11.809 11.7431 11.9343 11.455C11.9594 11.3955 11.9782 11.3359 12.0001 11.2764C12.0001 9.41582 12.0001 7.55834 12.0001 5.69773C11.9813 5.6946 11.9782 5.67894 11.975 5.66327C11.8153 5.20595 11.5272 4.99922 11.045 4.99922C9.84558 4.99922 8.64933 4.99922 7.44996 4.99922C7.35288 4.99922 7.2558 5.00548 7.15873 5.03054C6.75163 5.14017 6.50111 5.47533 6.49797 5.91386C6.49484 6.75333 6.49797 7.5928 6.49797 8.43226C6.49797 9.31558 6.49797 10.1958 6.49797 11.0791C6.49797 11.5176 6.72344 11.8277 7.13994 11.9687C7.15873 11.9749 7.18691 11.9687 7.19631 12Z"/>
<path d="M12.0001 0.704754C11.9594 0.682827 11.9688 0.635842 11.9563 0.601387C11.8373 0.250564 11.5148 0.0031085 11.1452 0.0031085C9.88323 -2.38419e-05 8.62436 -2.38419e-05 7.36236 0.0031085C6.88636 0.00624084 6.50745 0.385254 6.50119 0.8739C6.49179 1.6288 6.49179 2.38056 6.50119 3.13545C6.50745 3.63036 6.8801 3.99998 7.37801 4.00311C8.62749 4.00938 9.87697 4.00938 11.1264 4.00311C11.5523 3.99998 11.8718 3.73373 11.9782 3.32026C11.9814 3.3046 11.9814 3.28894 12.0001 3.28581C12.0001 2.42128 12.0001 1.56302 12.0001 0.704754Z"/>
<path d="M4.75678 12C4.7881 11.9561 4.84134 11.9749 4.88205 11.9624C5.24843 11.8434 5.49269 11.527 5.49582 11.1261C5.50209 10.3774 5.50522 9.62568 5.49582 8.87705C5.48956 8.37588 5.12004 8.00313 4.61587 7.99999C3.36639 7.99373 2.11691 7.99373 0.867432 7.99999C0.366388 8.00626 0.00313152 8.39154 0 8.89585C0 9.62881 0 10.3618 0 11.0979C0 11.5458 0.263048 11.8747 0.701461 11.9812C0.710856 11.9812 0.720251 11.9937 0.726514 12C2.06994 12 3.41336 12 4.75678 12Z"/>
<path d="M0 3.50817C0 4.36017 0 5.21217 0 6.06103C0 6.63112 0.366388 7.00073 0.936326 7.00073C2.14823 7.00073 3.35699 7.00073 4.56889 7.00073C5.12944 7.00073 5.50209 6.62798 5.50209 6.07043C5.50209 4.35704 5.50209 2.64051 5.50209 0.927123C5.50209 0.372698 5.12944 -5.05447e-05 4.57516 -5.05447e-05C3.35699 -5.05447e-05 2.13883 -5.05447e-05 0.920668 -5.05447e-05C0.375783 0.0030818 0.00313152 0.37583 0 0.920857C0 1.78225 0 2.64678 0 3.50817Z"/>
</svg>
