<svg width="12" height="12" viewBox="0 0 12 12" fill="none" xmlns="http://www.w3.org/2000/svg">
<path d="M11.6484 9.03755H10.8703V6.37655C10.8703 6.18241 10.7129 6.02498 10.5187 6.02498H6.35156V3.71562H10.5187C10.7129 3.71562 10.8703 3.55819 10.8703 3.36405V0.351562C10.8703 0.157406 10.7129 0 10.5187 0H1.48125C1.28709 0 1.12969 0.157406 1.12969 0.351562V3.36405C1.12969 3.55819 1.28709 3.71562 1.48125 3.71562H5.64844V6.02498H1.48125C1.28709 6.02498 1.12969 6.18241 1.12969 6.37655V9.03752H0.351562C0.157406 9.03752 0 9.19491 0 9.38909V11.6484C0 11.8426 0.157406 12 0.351562 12H3.41407V9.03755H1.83281V6.72813H5.64844V9.03755H4.1172V12H7.8828H7.88283V9.03755H7.8828H6.35156V6.72813H10.1672V9.03755H8.58595V12H11.6484C11.8426 12 12 11.8426 12 11.6484V9.38911C12 9.19491 11.8426 9.03755 11.6484 9.03755Z"/>
</svg>
