<svg width="12" height="12" viewBox="0 0 12 12" fill="none" xmlns="http://www.w3.org/2000/svg">
<path d="M8.61709 7.8026C8.71587 7.8026 8.76524 7.75323 8.76524 7.65445L9.20969 6.71619L7.92573 6.07422L7.53068 7.01248C7.48131 7.06186 7.48131 7.16063 7.53068 7.21001L7.67883 7.35816C7.92575 7.45693 8.12328 7.55568 8.3208 7.7532C8.37017 7.80258 8.41957 7.80258 8.46895 7.80258C8.56772 7.852 8.56772 7.852 8.61709 7.8026Z"/>
<path d="M9.75322 7.20997C9.65445 7.16059 9.5063 7.25934 9.45692 7.35812L8.91371 8.5433C8.91371 8.59268 8.86433 8.64207 8.91371 8.69145C9.06186 9.43219 8.66679 10.2223 8.27174 10.6667C7.87669 11.0618 7.1853 11.3087 6.44456 11.3087C5.7532 11.3087 5.16061 11.0618 4.76556 10.6667C4.71619 10.6174 4.56804 10.4692 4.51864 10.2717C4.46926 10.3211 4.41987 10.4199 4.32112 10.4199H1.852C1.70385 10.4199 1.60508 10.3211 1.60508 10.1729V6.71613C1.60508 6.56798 1.70385 6.4692 1.852 6.4692H4.32114C4.46929 6.4692 4.56806 6.56798 4.56806 6.71613V9.87661C4.66683 9.67909 4.81498 9.53092 5.01251 9.48156C5.06188 9.48156 5.06188 9.48156 5.11128 9.43219C5.16065 9.38282 5.25943 9.33342 5.3582 9.23467C5.40757 9.18529 5.40757 9.13589 5.40757 9.08652C5.40757 9.03714 5.40757 9.03714 5.45695 8.98775C5.50632 8.88897 5.50632 8.79022 5.55572 8.64205V8.59268C5.55572 8.5433 5.55572 8.4939 5.55572 8.44453V6.76552C5.55572 6.61738 5.6545 6.5186 5.80264 6.5186H7.33348L7.531 6.02478H1.80262C1.65447 6.02478 1.5557 5.92601 1.5557 5.77786V3.80256C1.5557 3.65441 1.65447 3.55564 1.80262 3.55564H8.41991C8.46929 3.55564 8.51868 3.55564 8.51868 3.60502L9.0125 2.46923C9.06188 2.41985 9.0125 2.32108 9.0125 2.22231C8.96313 2.17293 8.91373 2.12354 8.81498 2.12354H8.71621H1.3088C0.617436 2.12354 0.0742188 2.66675 0.0742188 3.35809V10.7655C0.0742188 11.4569 0.617436 12.0001 1.30878 12.0001H8.71618C9.40755 12.0001 9.95074 11.4568 9.95074 10.7655V7.60501C9.95074 7.35812 9.85197 7.25934 9.75322 7.20997Z"/>
<path d="M6.29665 8.19742C6.00036 8.49372 5.90161 8.79001 5.85221 9.03693C5.80283 9.23446 5.75344 9.38263 5.60529 9.53075C5.30899 9.82705 5.16084 9.87645 5.16084 9.87645C5.06207 9.92582 5.0127 9.97522 5.0127 10.074C5.0127 10.1727 5.0127 10.2221 5.06207 10.3209C5.40776 10.6666 5.85219 10.8147 6.3954 10.8147C6.98799 10.8147 7.58059 10.6172 7.87688 10.3209C8.3707 9.82707 8.667 8.79003 8.1238 8.24682C7.62996 7.7036 6.83985 7.7036 6.29665 8.19742Z"/>
<path d="M11.0865 0C10.7408 0 10.4445 0.197523 10.2964 0.493819L8.12354 5.62963L9.40749 6.2716L11.8272 1.18519C11.8766 1.08641 11.926 0.938264 11.926 0.790139C11.926 0.345694 11.5309 0 11.0865 0V0Z"/>
</svg>
